<svg width="35" height="34" viewBox="0 0 36 37" fill="none" xmlns="http://www.w3.org/2000/svg">
<path d="M34.6667 29.4169V17.8587C34.6667 16.7455 34.6658 16.1886 34.5304 15.6706C34.4104 15.2115 34.2135 14.7771 33.9471 14.3845C33.6464 13.9416 33.2283 13.5742 32.3905 12.8412L22.3905 4.09118C20.8351 2.73017 20.0573 2.05001 19.1821 1.79117C18.4109 1.5631 17.5888 1.5631 16.8176 1.79117C15.943 2.04982 15.1664 2.72933 13.6133 4.08829L3.60999 12.8412C2.77221 13.5742 2.35429 13.9416 2.05359 14.3845C1.78711 14.7771 1.58868 15.2115 1.46873 15.6706C1.33337 16.1886 1.33337 16.7455 1.33337 17.8587V29.4169C1.33337 31.3583 1.33337 32.3287 1.65054 33.0944C2.07343 34.1153 2.88404 34.9274 3.90499 35.3503C4.6707 35.6675 5.64141 35.6675 7.58284 35.6675C9.52426 35.6675 10.496 35.6675 11.2618 35.3503C12.2827 34.9274 13.0931 34.1155 13.516 33.0946C13.8332 32.3288 13.8334 31.3581 13.8334 29.4167V27.3334C13.8334 25.0322 15.6989 23.1667 18 23.1667C20.3012 23.1667 22.1667 25.0322 22.1667 27.3334V29.4167C22.1667 31.3581 22.1667 32.3288 22.4839 33.0946C22.9068 34.1155 23.7174 34.9274 24.7383 35.3503C25.504 35.6675 26.4747 35.6675 28.4162 35.6675C30.3576 35.6675 31.3294 35.6675 32.0951 35.3503C33.116 34.9274 33.9264 34.1153 34.3493 33.0944C34.6665 32.3287 34.6667 31.3583 34.6667 29.4169Z" stroke="#333334" stroke-opacity="0.3" stroke-width="1" stroke-linecap="round" stroke-linejoin="round"/>
</svg>
