<svg width="427" height="198" viewBox="0 0 427 198" fill="none" xmlns="http://www.w3.org/2000/svg">
<path d="M422.656 27.2518L410.938 9.63182C404.856 0.489821 392.7 -2.32419 383.221 3.21282L235.001 95.9528L158.128 74.8508L223.311 74.8298C228.831 74.8278 234.122 72.6238 238.014 68.7038C241.903 64.7868 244.016 59.4788 243.979 53.9568L243.905 35.8648C243.825 24.4748 234.573 15.2828 223.18 15.2788L107.173 15.2488C107.171 15.2488 107.171 15.2488 107.169 15.2488C101.624 15.2488 96.312 17.4698 92.417 21.4148L5.97901 108.974C-1.71399 116.764 -2.02099 129.194 5.27601 137.354L53.087 190.831C57.108 195.331 62.769 197.747 68.546 197.747C71.341 197.747 74.161 197.182 76.835 196.014L137.655 169.46L246.851 169.44C251.074 169.44 255.193 168.151 258.663 165.745L417.213 55.7668C426.488 49.3318 428.91 36.6538 422.656 27.2518Z" fill="#2E8B57"/>
</svg>
