<svg width="20" height="20" viewBox="0 0 20 20" fill="none" xmlns="http://www.w3.org/2000/svg">
<path d="M15.8333 11.6667C17.075 10.45 18.3333 8.99167 18.3333 7.08333C18.3333 5.86776 17.8504 4.70197 16.9909 3.84243C16.1313 2.98289 14.9655 2.5 13.75 2.5C12.2833 2.5 11.25 2.91667 9.99996 4.16667C8.74996 2.91667 7.71663 2.5 6.24996 2.5C5.03438 2.5 3.8686 2.98289 3.00905 3.84243C2.14951 4.70197 1.66663 5.86776 1.66663 7.08333C1.66663 9 2.91663 10.4583 4.16663 11.6667L9.99996 17.5L15.8333 11.6667Z" stroke="#F5FEFD" stroke-linecap="round" stroke-linejoin="round"/>
<path d="M10 4.16602L7.53334 6.63268C7.36402 6.80077 7.22964 7.0007 7.13794 7.22096C7.04624 7.44121 6.99902 7.67743 6.99902 7.91602C6.99902 8.1546 7.04624 8.39082 7.13794 8.61108C7.22964 8.83133 7.36402 9.03126 7.53334 9.19935C8.21667 9.88268 9.30834 9.90768 10.0333 9.25768L11.7583 7.67435C12.1907 7.28201 12.7537 7.06467 13.3375 7.06467C13.9214 7.06467 14.4843 7.28201 14.9167 7.67435L17.3833 9.89102" stroke="#F5FEFD" stroke-linecap="round" stroke-linejoin="round"/>
<path d="M15 12.5007L13.3333 10.834" stroke="#F5FEFD" stroke-linecap="round" stroke-linejoin="round"/>
<path d="M12.5 15.0007L10.8333 13.334" stroke="#F5FEFD" stroke-linecap="round" stroke-linejoin="round"/>
</svg>
