<svg width="30" height="30" viewBox="-2 0 52 30" fill="none" xmlns="http://www.w3.org/2000/svg">
<path d="M44.3779 0.835938C44.7997 0.499414 45.2495 0.43318 45.6553 0.561523C46.0201 0.67691 46.3942 0.964981 46.6846 1.45117L46.8037 1.67188L48.1514 4.43945C48.4627 5.07879 48.5628 5.84393 48.4619 6.56543C48.3734 7.19886 48.1352 7.76535 47.7871 8.17188L47.6309 8.33691L29.3994 25.6104C29.12 25.875 28.8139 26.0157 28.5137 26.0469L28.3848 26.0537L15.8291 26.0566H15.6914L15.5723 26.1279L8.5791 30.2988C8.34527 30.4383 8.10861 30.5 7.88184 30.5C7.47835 30.4999 7.0397 30.2985 6.6748 29.8486L6.52246 29.6396L1.02539 21.2402C0.343087 20.198 0.330989 18.6155 0.958984 17.5547L1.09277 17.3496L11.0322 3.59668C11.3603 3.14276 11.7625 2.90029 12.1553 2.84668L12.3232 2.83496L25.6631 2.83984C26.1213 2.84009 26.5786 3.09212 26.9404 3.58301C27.2568 4.01243 27.4805 4.60407 27.5342 5.28125L27.5469 5.57617L27.5547 8.41699V8.41797C27.558 9.09947 27.3905 9.73971 27.0977 10.2344L26.9648 10.4375C26.637 10.8886 26.2359 11.1294 25.8447 11.1826L25.6777 11.1934L18.1826 11.1973L18.0078 12.165L26.8467 15.4795L27.123 15.583L27.3477 15.3916L44.3779 0.835938Z" stroke="#333334" stroke-opacity="0.3" stroke-width="2"/>
</svg>
