<svg width="15" height="15" viewBox="0 0 15 15" fill="none" xmlns="http://www.w3.org/2000/svg">
<path d="M9.375 13.125V8.125C9.375 7.95924 9.30915 7.80027 9.19194 7.68306C9.07473 7.56585 8.91576 7.5 8.75 7.5H6.25C6.08424 7.5 5.92527 7.56585 5.80806 7.68306C5.69085 7.80027 5.625 7.95924 5.625 8.125V13.125" stroke="#F5FEFD" stroke-linecap="round" stroke-linejoin="round"/>
<path d="M1.875 6.24967C1.87496 6.06784 1.91458 5.88819 1.99112 5.72325C2.06765 5.55831 2.17925 5.41205 2.31813 5.29467L6.69312 1.5453C6.91874 1.35462 7.2046 1.25 7.5 1.25C7.7954 1.25 8.08126 1.35462 8.30688 1.5453L12.6819 5.29467C12.8208 5.41205 12.9323 5.55831 13.0089 5.72325C13.0854 5.88819 13.125 6.06784 13.125 6.24967V11.8747C13.125 12.2062 12.9933 12.5241 12.7589 12.7586C12.5245 12.993 12.2065 13.1247 11.875 13.1247H3.125C2.79348 13.1247 2.47554 12.993 2.24112 12.7586C2.0067 12.5241 1.875 12.2062 1.875 11.8747V6.24967Z" stroke="#F5FEFD" stroke-linecap="round" stroke-linejoin="round"/>
</svg>
