<svg width="15" height="15" viewBox="0 0 15 15" fill="none" xmlns="http://www.w3.org/2000/svg">
<path d="M7.5 1.25C8.125 3.125 9.0625 3.4375 9.6875 4.0625C10.2763 4.63947 10.6133 5.42572 10.625 6.25C10.625 7.0788 10.2958 7.87366 9.70971 8.45971C9.12366 9.04576 8.3288 9.375 7.5 9.375C6.6712 9.375 5.87634 9.04576 5.29029 8.45971C4.70424 7.87366 4.375 7.0788 4.375 6.25C4.375 6.0625 4.375 5.875 4.4375 5.6875C4.49032 5.87234 4.58505 6.0425 4.71434 6.18476C4.84363 6.32703 5.00399 6.43755 5.18295 6.50775C5.36191 6.57794 5.55465 6.60592 5.74618 6.58949C5.93771 6.57307 6.12287 6.5127 6.28727 6.41306C6.45167 6.31343 6.59087 6.17722 6.69406 6.01502C6.79724 5.85283 6.86163 5.66902 6.88221 5.47789C6.90279 5.28676 6.87901 5.09346 6.81272 4.91302C6.74643 4.73257 6.63942 4.56985 6.5 4.4375C5 2.8125 6.875 1.25 7.5 1.25Z" stroke="#F5FEFD" stroke-linecap="round" stroke-linejoin="round"/>
<path d="M3.125 13.75L11.875 11.25" stroke="#F5FEFD" stroke-linecap="round" stroke-linejoin="round"/>
<path d="M3.125 11.25L11.875 13.75" stroke="#F5FEFD" stroke-linecap="round" stroke-linejoin="round"/>
</svg>
