<svg width="15" height="15" viewBox="0 0 15 15" fill="none" xmlns="http://www.w3.org/2000/svg">
<path d="M4.375 10.1875C5.75 10.1875 6.875 9.04375 6.875 7.65625C6.875 6.93125 6.51875 6.24375 5.80625 5.6625C5.09375 5.08125 4.55625 4.21875 4.375 3.3125C4.19375 4.21875 3.6625 5.0875 2.94375 5.6625C2.225 6.2375 1.875 6.9375 1.875 7.65625C1.875 9.04375 3 10.1875 4.375 10.1875Z" stroke="#F5FEFD" stroke-linecap="round" stroke-linejoin="round"/>
<path d="M7.85002 4.12422C8.27987 3.43742 8.58459 2.67987 8.75002 1.88672C9.06252 3.44922 10 4.94922 11.25 5.94922C12.5 6.94922 13.125 8.13672 13.125 9.38672C13.1286 10.2507 12.8756 11.0962 12.398 11.8161C11.9205 12.5361 11.2399 13.0981 10.4426 13.4308C9.6453 13.7635 8.76716 13.852 7.91951 13.685C7.07185 13.5181 6.29286 13.1032 5.68127 12.493" stroke="#F5FEFD" stroke-linecap="round" stroke-linejoin="round"/>
</svg>
