<svg width="250" height="250" viewBox="0 0 250 250" fill="none" xmlns="http://www.w3.org/2000/svg">
<rect width="250" height="250" fill="#2E8B57"/>
<path d="M186.009 128C186.009 125.133 186.542 122.617 187.609 120.45C188.709 118.283 190.192 116.617 192.059 115.45C193.926 114.283 196.009 113.7 198.309 113.7C200.276 113.7 201.992 114.1 203.459 114.9C204.959 115.7 206.109 116.75 206.909 118.05V114.1H215.459V142H206.909V138.05C206.076 139.35 204.909 140.4 203.409 141.2C201.942 142 200.226 142.4 198.259 142.4C195.992 142.4 193.926 141.817 192.059 140.65C190.192 139.45 188.709 137.767 187.609 135.6C186.542 133.4 186.009 130.867 186.009 128ZM206.909 128.05C206.909 125.917 206.309 124.233 205.109 123C203.942 121.767 202.509 121.15 200.809 121.15C199.109 121.15 197.659 121.767 196.459 123C195.292 124.2 194.709 125.867 194.709 128C194.709 130.133 195.292 131.833 196.459 133.1C197.659 134.333 199.109 134.95 200.809 134.95C202.509 134.95 203.942 134.333 205.109 133.1C206.309 131.867 206.909 130.183 206.909 128.05Z" fill="#F5FEFD"/>
<path d="M179 107.803C177.5 107.803 176.166 109.867 175.199 109C174.266 108.1 176 109.3 176 108C176 106.667 175.567 108.867 176.5 108C177.467 107.1 174.5 107.5 176 107.5C177.467 107.5 178.067 106.1 179 107C179.967 107.867 182.313 105.267 182.313 106.6C182.313 107.9 179.967 107.6 179 108.5C178.067 109.367 180.467 107.803 179 107.803ZM181.513 114.1V142H172.963V114.1H181.513Z" fill="#F5FEFD"/>
<path d="M160.126 118.75C161.126 117.217 162.376 116.017 163.876 115.15C165.376 114.25 167.043 113.8 168.876 113.8V122.85H166.526C164.393 122.85 162.793 123.317 161.726 124.25C160.66 125.15 160.126 126.75 160.126 129.05V142H151.576V114.1H160.126V118.75Z" fill="#F5FEFD"/>
<path d="M146.814 134.75V142H142.464C139.364 142 136.947 141.25 135.214 139.75C133.48 138.217 132.614 135.733 132.614 132.3V121.2H129.214V114.1H132.614V107.3H141.164V114.1H146.764V121.2H141.164V132.4C141.164 133.233 141.364 133.833 141.764 134.2C142.164 134.567 142.83 134.75 143.764 134.75H146.814Z" fill="#F5FEFD"/>
<path d="M114.572 113.8C117.839 113.8 120.439 114.867 122.372 117C124.339 119.1 125.322 122 125.322 125.7V142H116.822V126.85C116.822 124.983 116.339 123.533 115.372 122.5C114.406 121.467 113.106 120.95 111.472 120.95C109.839 120.95 108.539 121.467 107.572 122.5C106.606 123.533 106.122 124.983 106.122 126.85V142H97.5723V114.1H106.122V117.8C106.989 116.567 108.156 115.6 109.622 114.9C111.089 114.167 112.739 113.8 114.572 113.8Z" fill="#F5FEFD"/>
<path d="M93.0617 127.6C93.0617 128.4 93.0117 129.233 92.9117 130.1H73.5617C73.6951 131.833 74.245 133.167 75.2117 134.1C76.2117 135 77.4284 135.45 78.8617 135.45C80.9951 135.45 82.4784 134.55 83.3117 132.75H92.4117C91.9451 134.583 91.0951 136.233 89.8617 137.7C88.6617 139.167 87.1451 140.317 85.3117 141.15C83.4784 141.983 81.4284 142.4 79.1617 142.4C76.4284 142.4 73.9951 141.817 71.8617 140.65C69.7284 139.483 68.0617 137.817 66.8617 135.65C65.6617 133.483 65.0617 130.95 65.0617 128.05C65.0617 125.15 65.6451 122.617 66.8117 120.45C68.0117 118.283 69.6784 116.617 71.8117 115.45C73.9451 114.283 76.3951 113.7 79.1617 113.7C81.8617 113.7 84.2617 114.267 86.3617 115.4C88.4617 116.533 90.0951 118.15 91.2617 120.25C92.4617 122.35 93.0617 124.8 93.0617 127.6ZM84.3117 125.35C84.3117 123.883 83.8117 122.717 82.8117 121.85C81.8117 120.983 80.5617 120.55 79.0617 120.55C77.6284 120.55 76.4117 120.967 75.4117 121.8C74.4451 122.633 73.8451 123.817 73.6117 125.35H84.3117Z" fill="#F5FEFD"/>
<path d="M48.7 142.35C46.1333 142.35 43.8333 141.933 41.8 141.1C39.7667 140.267 38.1333 139.033 36.9 137.4C35.7 135.767 35.0667 133.8 35 131.5H44.1C44.2333 132.8 44.6833 133.8 45.45 134.5C46.2167 135.167 47.2167 135.5 48.45 135.5C49.7167 135.5 50.7167 135.217 51.45 134.65C52.1833 134.05 52.55 133.233 52.55 132.2C52.55 131.333 52.25 130.617 51.65 130.05C51.0833 129.483 50.3667 129.017 49.5 128.65C48.6667 128.283 47.4667 127.867 45.9 127.4C43.6333 126.7 41.7833 126 40.35 125.3C38.9167 124.6 37.6833 123.567 36.65 122.2C35.6167 120.833 35.1 119.05 35.1 116.85C35.1 113.583 36.2833 111.033 38.65 109.2C41.0167 107.333 44.1 106.4 47.9 106.4C51.7667 106.4 54.8833 107.333 57.25 109.2C59.6167 111.033 60.8833 113.6 61.05 116.9H51.8C51.7333 115.767 51.3167 114.883 50.55 114.25C49.7833 113.583 48.8 113.25 47.6 113.25C46.5667 113.25 45.7333 113.533 45.1 114.1C44.4667 114.633 44.15 115.417 44.15 116.45C44.15 117.583 44.6833 118.467 45.75 119.1C46.8167 119.733 48.4833 120.417 50.75 121.15C53.0167 121.917 54.85 122.65 56.25 123.35C57.6833 124.05 58.9167 125.067 59.95 126.4C60.9833 127.733 61.5 129.45 61.5 131.55C61.5 133.55 60.9833 135.367 59.95 137C58.95 138.633 57.4833 139.933 55.55 140.9C53.6167 141.867 51.3333 142.35 48.7 142.35Z" fill="#F5FEFD"/>
<path d="M184.9 102.5C184.9 103.983 184.46 105.433 183.636 106.667C182.812 107.9 181.641 108.861 180.27 109.429C178.9 109.997 177.392 110.145 175.937 109.856C174.482 109.566 173.146 108.852 172.097 107.803C171.048 106.754 170.333 105.418 170.044 103.963C169.755 102.508 169.903 101 170.471 99.6299C171.039 98.2594 172 97.0881 173.233 96.264C174.467 95.4399 175.917 95 177.4 95C178.385 95 179.36 95.194 180.27 95.5709C181.18 95.9478 182.007 96.5003 182.703 97.1967C183.4 97.8931 183.952 98.7199 184.329 99.6299C184.706 100.54 184.9 101.515 184.9 102.5ZM181.39 98.6122C181.383 98.5304 181.348 98.4537 181.289 98.3958C181.231 98.3379 181.155 98.3024 181.073 98.2958C181.073 98.2958 176.859 98.0494 174.974 99.9346C173.319 101.589 173.221 103.334 174.114 104.628L177.158 101.582C177.193 101.547 177.235 101.518 177.28 101.499C177.326 101.48 177.375 101.47 177.424 101.469C177.474 101.469 177.523 101.479 177.569 101.498C177.615 101.517 177.657 101.544 177.692 101.579C177.727 101.614 177.754 101.656 177.773 101.702C177.792 101.748 177.802 101.797 177.801 101.847C177.801 101.896 177.791 101.945 177.772 101.991C177.753 102.036 177.724 102.078 177.689 102.113L173.491 106.31C173.422 106.381 173.384 106.476 173.384 106.575C173.385 106.673 173.424 106.768 173.494 106.838C173.564 106.908 173.659 106.947 173.757 106.948C173.856 106.948 173.951 106.91 174.022 106.841L175.199 105.663C176.478 106.454 178.155 106.305 179.751 104.711C181.636 102.825 181.39 98.6122 181.39 98.6122Z" fill="#F5FEFD"/>
<path d="M98.2672 111.791C97.6086 110.892 98.9739 104.971 90.9575 100.931C89.6391 101.23 88.1572 109.557 95.9466 112.105C98.2751 113.56 97.9083 115.985 97.9083 117.333H99.4061C99.4061 117.333 98.7933 113.057 101.53 111.49C103.392 110.424 108.535 110.082 109.9 100.477C107.298 98.5961 98.0572 102.262 98.2672 111.791ZM96.3781 110.171C96.2194 110.308 96.0015 110.259 95.8916 110.06C95.1293 108.68 93.0211 105.495 92.0891 104.333C91.9524 104.163 91.9524 103.886 92.0891 103.716C92.2252 103.545 92.4467 103.545 92.5829 103.716C93.5729 104.956 95.6567 108.104 96.4666 109.563C96.5764 109.761 96.5368 110.033 96.3781 110.171ZM106.149 103.084C103.6 105.097 101.517 108.447 100.577 110.267C100.473 110.469 100.256 110.527 100.095 110.397C99.9328 110.265 99.8864 109.995 99.9914 109.792C100.973 107.899 103.083 104.481 105.775 102.346C105.938 102.216 106.153 102.277 106.257 102.481C106.36 102.685 106.312 102.954 106.149 103.084Z" fill="#F5FEFD"/>
</svg>
