<svg width="50" height="50" viewBox="0 0 50 50" fill="none" xmlns="http://www.w3.org/2000/svg">
<path fill-rule="evenodd" clip-rule="evenodd" d="M0 24.7938C0 11.0979 11.1937 0 25 0V0.00208334C38.8062 0.00208334 50 11.1021 50 24.7938C50 38.4875 38.8062 49.5854 25 49.5854C11.1937 49.5854 0 38.4833 0 24.7938ZM24.7595 15.5512C24.76 15.5309 24.7606 15.5104 24.7612 15.4896C24.7855 14.6284 24.8214 13.3526 23.5292 12.5513C18.6608 10.9714 19.587 5.80667 20.411 5.62119C24.3526 7.59261 24.6652 10.2859 24.8196 11.6166C24.8615 11.9773 24.8917 12.238 24.9795 12.3568C24.8483 6.44689 30.6238 4.17329 32.2501 5.33965C31.5325 10.351 29.144 11.2968 27.7107 11.8642C27.4402 11.9713 27.2037 12.065 27.0189 12.1699C25.6717 12.9354 25.6231 14.7431 25.6633 15.4765L36.4917 20.8333V21.2958H35.3958V22.3458L34.7083 22.5208V21.6958H29.1667V23.9333L28.4875 24.1083V21.6958H22.1021V24.0792L21.4187 23.9063V21.6958H15.8604V22.4896L15.1729 22.3188V21.2563H13.9687V20.8333L24.7595 15.5512ZM24.9067 15.794L14.2625 21.0125H36.1937L25.6602 15.794H24.9067ZM15.175 29.8188L15.1729 22.3188L1.49792 18.8271C1.00833 20.7354 0.747917 22.7354 0.747917 24.7917C0.747012 27.3956 1.17062 29.9823 2.00208 32.45L15.175 29.8188ZM15.8604 29.6792V22.4896L21.4187 23.9063V28.5729L22.1021 28.4333V30.5167H22.4729L22.6729 28.3188L22.1021 28.4333V24.0792L23.0437 24.3188L23.125 23.4042H27.45L27.5333 24.3479L28.4875 24.1083L28.4833 28.4292L27.8979 28.3146L28.1 30.5167H28.4833V28.4292L29.1708 28.5688V30.5167H34.7083V29.675L35.3958 29.8146V31.1729H40.4542V33.4458H41.2729L41.2687 33.9625L35.55 37.0271L36.9458 45.8167L36.5229 46.0479L35.8083 41.425H14.7458L13.9771 46.2417L14 46.2521H13.9792V46.2458C13.8431 46.1792 13.7076 46.1111 13.5729 46.0417L15 37.0625L9.23958 33.9938L9.24167 33.4438H10.1021V31.1729H15.175V29.8188L15.8604 29.6792ZM15.8604 29.6792L21.4146 28.5729V30.5167H15.8604V29.6792ZM14 46.2521C17.4243 47.9918 21.2112 48.8977 25.0521 48.8958C29.0514 48.902 32.9908 47.9239 36.5229 46.0479L14 46.2521ZM35.3958 29.8146V22.3458L48.6458 18.9729C49.7459 23.3928 49.5667 28.0343 48.1292 32.3563L35.3958 29.8146ZM34.7083 29.675L29.1708 28.5688V23.9333L34.7083 22.5208V29.675ZM22.7792 30.5167L23.4 23.7083H27.1729L27.7958 30.5167H22.7792ZM15.8604 31.2333V31.0896H35.0917L35.1 31.2333H15.8604ZM10.5542 33.4438V31.7563H15.1729V33.4438H10.5542ZM15.8604 33.4438V31.7563H22.1313V33.4438H15.8604ZM22.5875 33.4438V31.7563H28.0146V33.4438H22.5875ZM28.4708 33.4438V31.7563H35.0958V33.4438H28.4708ZM35.55 33.4438V31.7563H40V33.4438H35.55ZM15.4625 36.7979L10.1 33.9438H40.4542L35.0917 36.7979H15.4625ZM23.4948 11.2832C23.5635 11.4063 23.6997 11.437 23.7989 11.3518C23.8981 11.2667 23.9228 11.0977 23.8542 10.9747C23.348 10.07 22.0456 8.11768 21.4269 7.34876C21.3418 7.24277 21.2033 7.24277 21.1182 7.34876C21.0328 7.45429 21.0328 7.62606 21.1182 7.73157C21.7008 8.45222 23.0184 10.4272 23.4948 11.2832ZM26.4234 11.4114C27.0105 10.2829 28.3125 8.2052 29.9055 6.9565C30.0074 6.87607 30.0375 6.70902 29.973 6.58268C29.9082 6.45634 29.7735 6.41849 29.6717 6.49892C27.9894 7.82333 26.671 9.94315 26.0572 11.1171C25.9916 11.243 26.0206 11.4105 26.1217 11.4919C26.2227 11.5728 26.3582 11.5368 26.4234 11.4114Z" fill="#2E8B57"/>
</svg>
