<svg width="48" height="74" viewBox="0 0 48 74" fill="none" xmlns="http://www.w3.org/2000/svg">
<circle cx="24" cy="24" r="24" fill="#B22222"/>
<path d="M27.75 35.25V25.25C27.75 24.9185 27.6183 24.6005 27.3839 24.3661C27.1495 24.1317 26.8315 24 26.5 24H21.5C21.1685 24 20.8505 24.1317 20.6161 24.3661C20.3817 24.6005 20.25 24.9185 20.25 25.25V35.25" stroke="#F5FEFD" stroke-width="2" stroke-linecap="round" stroke-linejoin="round"/>
<path d="M12.75 21.4993C12.7499 21.1357 12.8292 20.7764 12.9822 20.4465C13.1353 20.1166 13.3585 19.8241 13.6363 19.5893L22.3862 12.0906C22.8375 11.7092 23.4092 11.5 24 11.5C24.5908 11.5 25.1625 11.7092 25.6138 12.0906L34.3638 19.5893C34.6415 19.8241 34.8647 20.1166 35.0178 20.4465C35.1708 20.7764 35.2501 21.1357 35.25 21.4993V32.7493C35.25 33.4124 34.9866 34.0483 34.5178 34.5171C34.0489 34.986 33.413 35.2493 32.75 35.2493H15.25C14.587 35.2493 13.9511 34.986 13.4822 34.5171C13.0134 34.0483 12.75 33.4124 12.75 32.7493V21.4993Z" stroke="#F5FEFD" stroke-width="2" stroke-linecap="round" stroke-linejoin="round"/>
<rect x="22" y="44" width="5" height="30" fill="#B22222"/>
</svg>
