<svg width="423" height="111" viewBox="0 0 423 111" fill="none" xmlns="http://www.w3.org/2000/svg">
<path d="M353.629 77.2785C353.629 70.5654 354.878 64.6719 357.375 59.5981C359.951 54.5243 363.425 50.6213 367.796 47.8892C372.168 45.1572 377.046 43.7911 382.432 43.7911C387.038 43.7911 391.058 44.7278 394.493 46.6013C398.005 48.4747 400.698 50.9335 402.572 53.9779V44.7278H422.594V110.063H402.572V100.813C400.62 103.858 397.888 106.316 394.375 108.19C390.941 110.063 386.921 111 382.315 111C377.007 111 372.168 109.634 367.796 106.902C363.425 104.092 359.951 100.15 357.375 95.076C354.878 89.9241 353.629 83.9916 353.629 77.2785ZM402.572 77.3956C402.572 72.3998 401.167 68.4578 398.356 65.5696C395.624 62.6814 392.268 61.2373 388.287 61.2373C384.306 61.2373 380.91 62.6814 378.1 65.5696C375.368 68.3798 374.002 72.2827 374.002 77.2785C374.002 82.2743 375.368 86.2553 378.1 89.2215C380.91 92.1097 384.306 93.5538 388.287 93.5538C392.268 93.5538 395.624 92.1097 398.356 89.2215C401.167 86.3333 402.572 82.3914 402.572 77.3956Z" fill="#F5FEFD"/>
<path d="M337.215 29.9824C333.703 29.9824 330.579 34.8143 328.315 32.7848C326.129 30.6772 330.19 33.4873 330.19 30.443C330.19 27.3207 329.175 32.4726 331.361 30.443C333.624 28.3354 326.677 29.2722 330.19 29.2722C333.624 29.2722 335.03 25.9937 337.215 28.1013C339.479 30.1308 344.973 24.0422 344.973 27.1646C344.973 30.2089 339.479 29.5063 337.215 31.6139C335.03 33.6435 340.65 29.9824 337.215 29.9824ZM343.1 44.7278V110.063H323.078V44.7278H343.1Z" fill="#F5FEFD"/>
<path d="M293.017 55.6171C295.359 52.0264 298.286 49.2162 301.799 47.1867C305.311 45.0791 309.214 44.0253 313.507 44.0253V65.2184H308.004C303.009 65.2184 299.262 66.3112 296.764 68.4968C294.266 70.6044 293.017 74.3513 293.017 79.7373V110.063H272.995V44.7278H293.017V55.6171Z" fill="#F5FEFD"/>
<path d="M261.842 93.0854V110.063H251.655C244.396 110.063 238.737 108.307 234.678 104.794C230.619 101.204 228.589 95.3882 228.589 87.3481V61.3544H220.627V44.7278H228.589V28.8038H248.611V44.7278H261.725V61.3544H248.611V87.5823C248.611 89.5338 249.079 90.9388 250.016 91.7975C250.953 92.6561 252.514 93.0854 254.7 93.0854H261.842Z" fill="#F5FEFD"/>
<path d="M186.34 44.0253C193.99 44.0253 200.079 46.5232 204.606 51.519C209.211 56.4367 211.514 63.2279 211.514 71.8924V110.063H191.609V74.5854C191.609 70.2141 190.477 66.8186 188.214 64.3987C185.95 61.9789 182.906 60.769 179.081 60.769C175.256 60.769 172.211 61.9789 169.948 64.3987C167.684 66.8186 166.552 70.2141 166.552 74.5854V110.063H146.53V44.7278H166.552V53.3924C168.582 50.5042 171.314 48.2405 174.748 46.6013C178.183 44.884 182.047 44.0253 186.34 44.0253Z" fill="#F5FEFD"/>
<path d="M135.967 76.3418C135.967 78.2152 135.85 80.1667 135.616 82.1962H90.3028C90.615 86.2553 91.903 89.3776 94.1667 91.5633C96.5084 93.6709 99.3576 94.7247 102.714 94.7247C107.71 94.7247 111.184 92.6171 113.135 88.4019H134.445C133.352 92.6952 131.362 96.5591 128.474 99.9937C125.664 103.428 122.112 106.121 117.819 108.073C113.525 110.024 108.725 111 103.417 111C97.0158 111 91.3175 109.634 86.3217 106.902C81.326 104.17 77.423 100.267 74.6129 95.193C71.8028 90.1192 70.3977 84.1867 70.3977 77.3956C70.3977 70.6044 71.7637 64.6719 74.4958 59.5981C77.3059 54.5243 81.2089 50.6213 86.2047 47.8892C91.2004 45.1572 96.9378 43.7911 103.417 43.7911C109.739 43.7911 115.36 45.1181 120.277 47.7722C125.195 50.4262 129.02 54.212 131.752 59.1297C134.562 64.0475 135.967 69.7848 135.967 76.3418ZM115.477 71.0728C115.477 67.6382 114.306 64.9061 111.964 62.8766C109.622 60.847 106.695 59.8323 103.183 59.8323C99.826 59.8323 96.9768 60.808 94.635 62.7595C92.3713 64.711 90.9663 67.4821 90.4198 71.0728H115.477Z" fill="#F5FEFD"/>
<path d="M32.0823 110.883C26.0717 110.883 20.6857 109.907 15.9241 107.956C11.1624 106.004 7.33755 103.116 4.44937 99.2912C1.63924 95.4663 0.156118 90.8608 0 85.4747H21.3101C21.6224 88.519 22.6762 90.8608 24.4715 92.5C26.2669 94.0612 28.6087 94.8418 31.4968 94.8418C34.4631 94.8418 36.8049 94.1783 38.5222 92.8513C40.2395 91.4462 41.0981 89.5338 41.0981 87.1139C41.0981 85.0844 40.3956 83.4061 38.9905 82.0791C37.6635 80.7521 35.9852 79.6593 33.9557 78.8006C32.0042 77.942 29.1941 76.9662 25.5253 75.8734C20.2173 74.2342 15.885 72.5949 12.5285 70.9557C9.17194 69.3165 6.28376 66.8966 3.86392 63.6962C1.44409 60.4958 0.234178 56.3196 0.234178 51.1677C0.234178 43.5179 3.00527 37.5464 8.54747 33.2532C14.0897 28.8819 21.3101 26.6962 30.2089 26.6962C39.2637 26.6962 46.5622 28.8819 52.1044 33.2532C57.6466 37.5464 60.6129 43.557 61.0032 51.2848H39.3418C39.1857 48.6308 38.2099 46.5622 36.4146 45.0791C34.6192 43.5179 32.3165 42.7373 29.5063 42.7373C27.0865 42.7373 25.135 43.4008 23.6519 44.7278C22.1688 45.9768 21.4272 47.8112 21.4272 50.231C21.4272 52.885 22.6762 54.9536 25.174 56.4367C27.6719 57.9198 31.5749 59.52 36.8829 61.2373C42.1909 63.0327 46.4842 64.75 49.7627 66.3892C53.1192 68.0285 56.0074 70.4093 58.4272 73.5317C60.847 76.654 62.057 80.6741 62.057 85.5918C62.057 90.2753 60.847 94.5295 58.4272 98.3544C56.0854 102.179 52.6508 105.224 48.1234 107.487C43.596 109.751 38.2489 110.883 32.0823 110.883Z" fill="#F5FEFD"/>
<path d="M351.032 17.5633C351.032 21.037 350.002 24.4327 348.072 27.3209C346.142 30.2092 343.399 32.4603 340.19 33.7896C336.98 35.119 333.449 35.4668 330.042 34.7891C326.635 34.1114 323.505 32.4387 321.049 29.9824C318.593 27.5261 316.92 24.3967 316.243 20.9897C315.565 17.5828 315.913 14.0514 317.242 10.8421C318.571 7.63284 320.822 4.88983 323.711 2.95995C326.599 1.03007 329.995 0 333.468 0C335.775 0 338.059 0.454288 340.19 1.33693C342.32 2.21956 344.257 3.51327 345.887 5.14417C347.518 6.77507 348.812 8.71123 349.695 10.8421C350.577 12.973 351.032 15.2568 351.032 17.5633ZM342.812 8.45886C342.796 8.26739 342.713 8.08786 342.577 7.95219C342.44 7.81651 342.261 7.7335 342.069 7.71791C342.069 7.71791 332.202 7.14112 327.787 11.5558C323.911 15.4292 323.683 19.5155 325.773 22.5459L332.903 15.4136C332.984 15.3307 333.081 15.2647 333.188 15.2195C333.295 15.1742 333.41 15.1506 333.526 15.15C333.642 15.1494 333.757 15.1719 333.864 15.216C333.972 15.2602 334.069 15.3252 334.151 15.4073C334.233 15.4894 334.298 15.587 334.343 15.6944C334.387 15.8018 334.409 15.9168 334.409 16.033C334.408 16.1491 334.384 16.2639 334.339 16.3708C334.294 16.4778 334.228 16.5747 334.145 16.656L324.315 26.4858C324.153 26.6511 324.063 26.8737 324.064 27.1051C324.065 27.3366 324.158 27.5582 324.321 27.7219C324.485 27.8855 324.707 27.978 324.938 27.9792C325.17 27.9803 325.392 27.8901 325.557 27.7281L328.315 24.9706C331.31 26.823 335.236 26.4747 338.974 22.7411C343.389 18.3242 342.812 8.45886 342.812 8.45886Z" fill="#F5FEFD"/>
<path d="M148.157 39.3213C146.615 37.2166 149.812 23.3504 131.04 13.8883C127.952 14.5886 124.482 34.0899 142.723 40.0556C148.176 43.4627 147.317 49.1425 147.317 52.2995H150.824C150.824 52.2995 149.389 42.2853 155.798 38.6155C160.159 36.1196 172.203 35.3192 175.399 12.8252C169.305 8.42118 147.666 17.006 148.157 39.3213ZM143.733 35.5265C143.362 35.8481 142.852 35.7319 142.594 35.2674C140.809 32.0353 135.872 24.5779 133.69 21.8568C133.369 21.4584 133.369 20.8098 133.69 20.4113C134.008 20.0111 134.527 20.0111 134.846 20.4113C137.164 23.3147 142.044 30.6863 143.941 34.1024C144.198 34.567 144.105 35.2048 143.733 35.5265ZM166.614 18.9302C160.645 23.6452 155.767 31.4904 153.567 35.7515C153.323 36.225 152.815 36.3607 152.437 36.0552C152.058 35.7478 151.949 35.1154 152.195 34.6402C154.495 30.2075 159.435 22.2033 165.738 17.2025C166.12 16.8988 166.624 17.0417 166.867 17.5187C167.109 17.9958 166.996 18.6265 166.614 18.9302Z" fill="#F5FEFD"/>
</svg>
