<svg width="244" height="64" viewBox="0 0 244 64" fill="none" xmlns="http://www.w3.org/2000/svg">
<path d="M203.894 44.557C203.894 40.6864 204.614 37.2883 206.054 34.3629C207.54 31.4374 209.542 29.1871 212.063 27.6118C214.583 26.0366 217.396 25.2489 220.502 25.2489C223.157 25.2489 225.475 25.789 227.455 26.8692C229.48 27.9494 231.033 29.3671 232.113 31.1224V25.789H243.658V63.4599H232.113V58.1266C230.988 59.8819 229.413 61.2996 227.388 62.3797C225.407 63.4599 223.089 64 220.434 64C217.374 64 214.583 63.2124 212.063 61.6371C209.542 60.0169 207.54 57.744 206.054 54.8186C204.614 51.8481 203.894 48.4276 203.894 44.557ZM232.113 44.6245C232.113 41.744 231.303 39.4712 229.683 37.8059C228.108 36.1406 226.172 35.308 223.877 35.308C221.582 35.308 219.624 36.1406 218.004 37.8059C216.428 39.4262 215.641 41.6765 215.641 44.557C215.641 47.4374 216.428 49.7328 218.004 51.443C219.624 53.1083 221.582 53.9409 223.877 53.9409C226.172 53.9409 228.108 53.1083 229.683 51.443C231.303 49.7778 232.113 47.5049 232.113 44.6245Z" fill="#2E8B57"/>
<path d="M194.43 17.2872C192.405 17.2872 190.604 20.0731 189.299 18.903C188.039 17.6878 190.38 19.308 190.38 17.5527C190.38 15.7525 189.795 18.7229 191.055 17.5527C192.36 16.3376 188.354 16.8776 190.38 16.8776C192.36 16.8776 193.17 14.9873 194.43 16.2025C195.736 17.3727 198.903 13.8622 198.903 15.6624C198.903 17.4177 195.736 17.0127 194.43 18.2278C193.17 19.398 196.411 17.2872 194.43 17.2872ZM197.823 25.789V63.4599H186.279V25.789H197.823Z" fill="#2E8B57"/>
<path d="M168.947 32.0675C170.297 29.9972 171.985 28.3769 174.01 27.2067C176.035 25.9916 178.286 25.384 180.761 25.384V37.6034H177.588C174.708 37.6034 172.547 38.2335 171.107 39.4937C169.667 40.7089 168.947 42.8692 168.947 45.9747V63.4599H157.402V25.789H168.947V32.0675Z" fill="#2E8B57"/>
<path d="M150.972 53.6709V63.4599H145.099C140.913 63.4599 137.65 62.4473 135.31 60.4219C132.969 58.3516 131.799 54.9986 131.799 50.3629V35.3755H127.208V25.789H131.799V16.6076H143.343V25.789H150.905V35.3755H143.343V50.4979C143.343 51.6231 143.613 52.4332 144.153 52.9283C144.694 53.4233 145.594 53.6709 146.854 53.6709H150.972Z" fill="#2E8B57"/>
<path d="M107.439 25.384C111.85 25.384 115.361 26.8242 117.971 29.7046C120.626 32.5401 121.954 36.4557 121.954 41.4515V63.4599H110.477V43.0042C110.477 40.4838 109.825 38.526 108.52 37.1308C107.214 35.7356 105.459 35.038 103.254 35.038C101.048 35.038 99.2931 35.7356 97.9879 37.1308C96.6827 38.526 96.0301 40.4838 96.0301 43.0042V63.4599H84.4858V25.789H96.0301V30.7848C97.2003 29.1195 98.7755 27.8143 100.756 26.8692C102.736 25.879 104.964 25.384 107.439 25.384Z" fill="#2E8B57"/>
<path d="M78.3956 44.0169C78.3956 45.097 78.3281 46.2222 78.193 47.3924H52.0665C52.2465 49.7328 52.9891 51.533 54.2943 52.7932C55.6445 54.0084 57.2873 54.616 59.2226 54.616C62.103 54.616 64.1058 53.4008 65.231 50.9705H77.5179C76.8878 53.4458 75.7402 55.6737 74.0749 57.654C72.4546 59.6343 70.4068 61.1871 67.9314 62.3122C65.4561 63.4374 62.6881 64 59.6276 64C55.9371 64 52.6515 63.2124 49.7711 61.6371C46.8906 60.0619 44.6403 57.8115 43.02 54.8861C41.3998 51.9606 40.5897 48.5401 40.5897 44.6245C40.5897 40.7089 41.3773 37.2883 42.9525 34.3629C44.5728 31.4374 46.8231 29.1871 49.7036 27.6118C52.584 26.0366 55.8921 25.2489 59.6276 25.2489C63.2732 25.2489 66.5137 26.0141 69.3492 27.5443C72.1846 29.0745 74.3899 31.2574 75.9652 34.0928C77.5854 36.9283 78.3956 40.2363 78.3956 44.0169ZM66.5812 40.9789C66.5812 38.9986 65.9061 37.4233 64.5559 36.2532C63.2057 35.083 61.5179 34.4979 59.4926 34.4979C57.5573 34.4979 55.9146 35.0605 54.5644 36.1856C53.2591 37.3108 52.449 38.9086 52.134 40.9789H66.5812Z" fill="#2E8B57"/>
<path d="M18.4979 63.9325C15.0324 63.9325 11.9269 63.3699 9.18144 62.2447C6.43601 61.1195 4.23066 59.4543 2.5654 57.2489C0.945148 55.0436 0.0900141 52.3882 0 49.2827H12.2869C12.4669 51.038 13.0745 52.3882 14.1097 53.3333C15.1449 54.2335 16.4951 54.6835 18.1603 54.6835C19.8706 54.6835 21.2208 54.301 22.211 53.5359C23.2011 52.7257 23.6962 51.6231 23.6962 50.2278C23.6962 49.0577 23.2911 48.09 22.481 47.3249C21.7159 46.5598 20.7482 45.9297 19.5781 45.4346C18.4529 44.9395 16.8326 44.3769 14.7173 43.7468C11.6568 42.8017 9.15893 41.8565 7.22363 40.9114C5.28833 39.9662 3.62307 38.571 2.22785 36.7257C0.83263 34.8804 0.135021 32.4726 0.135021 29.5021C0.135021 25.0914 1.73277 21.6484 4.92827 19.173C8.12377 16.6526 12.2869 15.3924 17.4177 15.3924C22.6385 15.3924 26.8467 16.6526 30.0422 19.173C33.2377 21.6484 34.948 25.1139 35.173 29.5696H22.6835C22.5935 28.0394 22.0309 26.8467 20.9958 25.9916C19.9606 25.0914 18.6329 24.6413 17.0127 24.6413C15.6174 24.6413 14.4923 25.0239 13.6371 25.789C12.782 26.5091 12.3544 27.5668 12.3544 28.962C12.3544 30.4923 13.0745 31.6849 14.5148 32.5401C15.955 33.3952 18.2053 34.3179 21.2658 35.308C24.3263 36.3432 26.8017 37.3333 28.692 38.2785C30.6273 39.2236 32.2925 40.5963 33.6878 42.3966C35.083 44.1969 35.7806 46.5148 35.7806 49.3502C35.7806 52.0506 35.083 54.5035 33.6878 56.7089C32.3376 58.9142 30.3572 60.6695 27.7468 61.9747C25.1364 63.2799 22.0534 63.9325 18.4979 63.9325Z" fill="#2E8B57"/>
<path d="M202.397 10.1266C202.397 12.1294 201.803 14.0873 200.69 15.7526C199.577 17.4179 197.996 18.7159 196.145 19.4823C194.295 20.2488 192.259 20.4493 190.294 20.0586C188.33 19.6678 186.526 18.7034 185.109 17.2872C183.693 15.8709 182.729 14.0665 182.338 12.1022C181.947 10.1378 182.148 8.1017 182.914 6.25131C183.681 4.40092 184.979 2.81936 186.644 1.70664C188.309 0.593914 190.267 0 192.27 0C193.6 0 194.917 0.261932 196.145 0.77084C197.374 1.27975 198.49 2.02567 199.431 2.96601C200.371 3.90635 201.117 5.02269 201.626 6.25131C202.135 7.47992 202.397 8.79674 202.397 10.1266ZM197.658 4.87718C197.648 4.76678 197.6 4.66327 197.522 4.58504C197.443 4.50682 197.34 4.45896 197.229 4.44996C197.229 4.44996 191.54 4.1174 188.994 6.6628C186.76 8.89609 186.628 11.2522 187.833 12.9994L191.944 8.88714C191.991 8.83932 192.047 8.80127 192.108 8.77518C192.17 8.7491 192.236 8.73549 192.303 8.73515C192.37 8.73481 192.436 8.74775 192.498 8.77322C192.56 8.79868 192.616 8.83616 192.664 8.8835C192.711 8.93084 192.749 8.9871 192.774 9.04901C192.8 9.11093 192.812 9.17728 192.812 9.24422C192.812 9.31117 192.798 9.37739 192.772 9.43904C192.746 9.5007 192.708 9.55657 192.66 9.60343L186.993 15.2711C186.899 15.3664 186.847 15.4947 186.848 15.6282C186.848 15.7616 186.902 15.8894 186.996 15.9838C187.09 16.0781 187.218 16.1315 187.352 16.1321C187.485 16.1328 187.613 16.0808 187.709 15.9874L189.299 14.3975C191.025 15.4655 193.289 15.2647 195.445 13.112C197.99 10.5653 197.658 4.87718 197.658 4.87718Z" fill="#2E8B57"/>
<path d="M85.424 22.6717C84.5348 21.4582 86.3783 13.4633 75.5544 8.00765C73.7743 8.41147 71.7734 19.6555 82.2908 23.0951C85.4347 25.0596 84.9395 28.3344 84.9395 30.1547H86.9619C86.9619 30.1547 86.1344 24.3807 89.8298 22.2648C92.3441 20.8257 99.2881 20.3642 101.131 7.39471C97.6176 4.85545 85.1405 9.80527 85.424 22.6717ZM82.8734 20.4837C82.6591 20.6692 82.3649 20.6022 82.2165 20.3343C81.1872 18.4708 78.3408 14.171 77.0823 12.6021C76.8977 12.3724 76.8977 11.9985 77.0823 11.7687C77.2661 11.538 77.5652 11.538 77.749 11.7687C79.0858 13.4427 81.8993 17.693 82.9929 19.6626C83.1412 19.9305 83.0876 20.2983 82.8734 20.4837ZM96.0658 10.9147C92.6243 13.6332 89.8116 18.1566 88.5433 20.6135C88.4023 20.8865 88.1098 20.9647 87.8914 20.7886C87.673 20.6114 87.6104 20.2467 87.7521 19.9727C89.0781 17.4169 91.9263 12.8019 95.5606 9.91854C95.7806 9.74343 96.0716 9.82584 96.2117 10.1009C96.351 10.376 96.2858 10.7396 96.0658 10.9147Z" fill="#2E8B57"/>
</svg>
