<svg width="48" height="49" viewBox="0 0 48 49" fill="none" xmlns="http://www.w3.org/2000/svg">
<path d="M24 44.1363C34.9705 44.1363 43.8638 35.243 43.8638 24.2725C43.8638 13.302 34.9705 4.40869 24 4.40869C13.0296 4.40869 4.13623 13.302 4.13623 24.2725C4.13623 35.243 13.0296 44.1363 24 44.1363Z" stroke="#2E8B57" stroke-width="2" stroke-linecap="round" stroke-linejoin="round"/>
<path d="M31 28C32.49 26.54 34 24.79 34 22.5C34 21.0413 33.4205 19.6424 32.3891 18.6109C31.3576 17.5795 29.9587 17 28.5 17C26.74 17 25.5 17.5 24 19C22.5 17.5 21.26 17 19.5 17C18.0413 17 16.6424 17.5795 15.6109 18.6109C14.5795 19.6424 14 21.0413 14 22.5C14 24.8 15.5 26.55 17 28L24 35L31 28Z" stroke="#2E8B57" stroke-width="2" stroke-linecap="round" stroke-linejoin="round"/>
<path d="M24 19L21.04 21.96C20.8368 22.1617 20.6755 22.4016 20.5655 22.6659C20.4555 22.9302 20.3988 23.2137 20.3988 23.5C20.3988 23.7863 20.4555 24.0698 20.5655 24.3341C20.6755 24.5984 20.8368 24.8383 21.04 25.04C21.86 25.86 23.17 25.89 24.04 25.11L26.11 23.21C26.6288 22.7392 27.3044 22.4784 28.005 22.4784C28.7056 22.4784 29.3811 22.7392 29.9 23.21L32.86 25.87" stroke="#2E8B57" stroke-width="2" stroke-linecap="round" stroke-linejoin="round"/>
<path d="M30 29L28 27" stroke="#2E8B57" stroke-width="2" stroke-linecap="round" stroke-linejoin="round"/>
<path d="M27 32L25 30" stroke="#2E8B57" stroke-width="2" stroke-linecap="round" stroke-linejoin="round"/>
</svg>
