<svg width="48" height="49" viewBox="0 0 48 49" fill="none" xmlns="http://www.w3.org/2000/svg">
<path d="M24 44.1363C34.9705 44.1363 43.8638 35.243 43.8638 24.2725C43.8638 13.302 34.9705 4.40869 24 4.40869C13.0296 4.40869 4.13623 13.302 4.13623 24.2725C4.13623 35.243 13.0296 44.1363 24 44.1363Z" stroke="#2E8B57" stroke-width="2" stroke-linecap="round" stroke-linejoin="round"/>
<path d="M28.7673 20.4586C30.3471 20.4586 31.6277 19.1779 31.6277 17.5982C31.6277 16.0184 30.3471 14.7378 28.7673 14.7378C27.1876 14.7378 25.9069 16.0184 25.9069 17.5982C25.9069 19.1779 27.1876 20.4586 28.7673 20.4586Z" stroke="#2E8B57" stroke-width="2" stroke-linecap="round" stroke-linejoin="round"/>
<path d="M17.3258 27.1329C18.9055 27.1329 20.1862 25.8522 20.1862 24.2725C20.1862 22.6927 18.9055 21.4121 17.3258 21.4121C15.746 21.4121 14.4654 22.6927 14.4654 24.2725C14.4654 25.8522 15.746 27.1329 17.3258 27.1329Z" stroke="#2E8B57" stroke-width="2" stroke-linecap="round" stroke-linejoin="round"/>
<path d="M28.7673 33.8072C30.3471 33.8072 31.6277 32.5266 31.6277 30.9468C31.6277 29.3671 30.3471 28.0864 28.7673 28.0864C27.1876 28.0864 25.9069 29.3671 25.9069 30.9468C25.9069 32.5266 27.1876 33.8072 28.7673 33.8072Z" stroke="#2E8B57" stroke-width="2" stroke-linecap="round" stroke-linejoin="round"/>
<path d="M19.7952 25.7124L26.3074 29.5072" stroke="#2E8B57" stroke-width="2" stroke-linecap="round" stroke-linejoin="round"/>
<path d="M26.2978 19.0381L19.7952 22.8329" stroke="#2E8B57" stroke-width="2" stroke-linecap="round" stroke-linejoin="round"/>
</svg>
