<svg width="44" height="45" viewBox="0 0 44 45" fill="none" xmlns="http://www.w3.org/2000/svg">
<path d="M22 40.9673C32.06 40.9673 40.2153 32.812 40.2153 22.7519C40.2153 12.6919 32.06 4.53662 22 4.53662C11.9399 4.53662 3.78467 12.6919 3.78467 22.7519C3.78467 32.812 11.9399 40.9673 22 40.9673Z" stroke="#2E8B57" stroke-width="2" stroke-linecap="round" stroke-linejoin="round"/>
<path d="M24.751 22.502L17.0729 30.1801C16.7081 30.545 16.2133 30.7499 15.6973 30.7499C15.1814 30.7499 14.6866 30.545 14.3218 30.1801C13.957 29.8153 13.7521 29.3205 13.7521 28.8046C13.7521 28.2887 13.957 27.7939 14.3218 27.4291L22 19.751" stroke="#2E8B57" stroke-width="2" stroke-linecap="round" stroke-linejoin="round"/>
<path d="M27.5021 25.253L31.1701 21.585" stroke="#2E8B57" stroke-width="2" stroke-linecap="round" stroke-linejoin="round"/>
<path d="M30.7115 22.0437L28.9564 20.2885C28.6124 19.9447 28.4191 19.4782 28.419 18.9919V17.9171L26.3466 15.8447C25.3237 14.8224 23.9394 14.2439 22.4933 14.2344L19.2489 14.2124L20.0926 14.9644C20.6918 15.4957 21.1716 16.1479 21.5004 16.8782C21.8291 17.6084 21.9994 18.4001 21.9999 19.2009V20.6682L23.834 22.5022H24.9087C25.3951 22.5023 25.8615 22.6956 26.2053 23.0395L27.9605 24.7947" stroke="#2E8B57" stroke-width="2" stroke-linecap="round" stroke-linejoin="round"/>
</svg>
