<svg width="48" height="74" viewBox="0 0 48 74" fill="none" xmlns="http://www.w3.org/2000/svg">
<circle cx="24" cy="24" r="24" fill="#1560BD"/>
<rect x="22" y="44" width="5" height="30" fill="#1560BD"/>
<path d="M17.75 29.375C20.5 29.375 22.75 27.0875 22.75 24.3125C22.75 22.8625 22.0375 21.4875 20.6125 20.325C19.1875 19.1625 18.1125 17.4375 17.75 15.625C17.3875 17.4375 16.325 19.175 14.8875 20.325C13.45 21.475 12.75 22.875 12.75 24.3125C12.75 27.0875 15 29.375 17.75 29.375Z" stroke="#F5FEFD" stroke-width="2" stroke-linecap="round" stroke-linejoin="round"/>
<path d="M24.7 17.2504C25.5597 15.8768 26.1691 14.3617 26.5 12.7754C27.125 15.9004 29 18.9004 31.5 20.9004C34 22.9004 35.25 25.2754 35.25 27.7754C35.2571 29.5033 34.7511 31.1943 33.796 32.6343C32.8409 34.0742 31.4798 35.1981 29.8852 35.8635C28.2905 36.5289 26.5343 36.7059 24.839 36.372C23.1436 36.0381 21.5857 35.2083 20.3625 33.9879" stroke="#F5FEFD" stroke-width="2" stroke-linecap="round" stroke-linejoin="round"/>
</svg>
